<svg width="60" height="61" viewBox="0 0 60 61" fill="none" xmlns="http://www.w3.org/2000/svg">
<rect y="0.5" width="60" height="60" rx="12" fill="white"/>
<path d="M29.9961 35.1768V32.6398" stroke="#121014" stroke-width="1.5" stroke-linecap="round" stroke-linejoin="round"/>
<path fill-rule="evenodd" clip-rule="evenodd" d="M36.19 23.8302C37.88 23.8302 39.24 25.2002 39.24 26.8902V30.3302C36.78 31.7702 33.53 32.6402 29.99 32.6402C26.45 32.6402 23.21 31.7702 20.75 30.3302V26.8802C20.75 25.1902 22.12 23.8302 23.81 23.8302H36.19Z" stroke="black" stroke-width="1.5" stroke-linecap="round" stroke-linejoin="round"/>
<path d="M33.4961 23.8258V23.4598C33.4961 22.2398 32.5061 21.2498 31.2861 21.2498H28.7061C27.4861 21.2498 26.4961 22.2398 26.4961 23.4598V23.8258" stroke="black" stroke-width="1.5" stroke-linecap="round" stroke-linejoin="round"/>
<path d="M20.7734 33.983L20.9624 36.492C21.0904 38.183 22.4994 39.49 24.1944 39.49H35.7934C37.4884 39.49 38.8974 38.183 39.0254 36.492L39.2144 33.983" stroke="black" stroke-width="1.5" stroke-linecap="round" stroke-linejoin="round"/>
</svg>
