<svg width="48" height="48" viewBox="0 0 48 48" fill="none" xmlns="http://www.w3.org/2000/svg">
<g id="Gift">
<path id="Vector" d="M33.1054 12.87C33.3995 12.7201 33.6827 12.5496 33.9529 12.36C36.1429 10.8225 36.8179 7.995 35.4529 6.06C34.0879 4.125 31.2079 3.81 29.0179 5.3625C26.8279 6.915 25.7029 9.66 24.4804 12.8625L33.1054 12.87ZM6.52539 22.845H41.4829V40.62C41.4829 41.4156 41.1668 42.1787 40.6042 42.7413C40.0416 43.3039 39.2785 43.62 38.4829 43.62H9.52539C8.72974 43.62 7.96668 43.3039 7.40407 42.7413C6.84146 42.1787 6.52539 41.4156 6.52539 40.62V22.845Z" stroke="#F0F2F4" stroke-width="3" stroke-linecap="round" stroke-linejoin="round"/>
<path id="Vector_2" d="M28.3873 22.845H19.6123V43.62H28.3873V22.845Z" stroke="#F0F2F4" stroke-width="3" stroke-linecap="round" stroke-linejoin="round"/>
<path id="Vector_3" d="M14.8951 12.87C14.6025 12.7217 14.3217 12.5512 14.0551 12.36C11.8651 10.8225 11.1826 7.995 12.5551 6.06C13.9276 4.125 16.8001 3.81 18.9976 5.3625C21.1951 6.915 22.3051 9.66 23.5351 12.8625L14.8951 12.87Z" stroke="#F0F2F4" stroke-width="3" stroke-linecap="round" stroke-linejoin="round"/>
<path id="Vector_4" d="M40.875 12.8701H7.125C5.88236 12.8701 4.875 13.8775 4.875 15.1201V20.5951C4.875 21.8378 5.88236 22.8451 7.125 22.8451H40.875C42.1176 22.8451 43.125 21.8378 43.125 20.5951V15.1201C43.125 13.8775 42.1176 12.8701 40.875 12.8701Z" stroke="#F0F2F4" stroke-width="3" stroke-linecap="round" stroke-linejoin="round"/>
<path id="Vector_5" d="M29.1899 12.8701H18.8174V22.8451H29.1899V12.8701Z" stroke="#F0F2F4" stroke-width="3" stroke-linecap="round" stroke-linejoin="round"/>
</g>
</svg>
