<svg width="60" height="61" viewBox="0 0 60 61" fill="none" xmlns="http://www.w3.org/2000/svg">
<rect y="0.5" width="60" height="60" rx="12" fill="white"/>
<path d="M27.1572 39.2714V36.2047C27.1572 35.4246 27.7931 34.7908 28.581 34.7856H31.4671C32.2587 34.7856 32.9005 35.4209 32.9005 36.2047V36.2047V39.2809C32.9003 39.9432 33.4343 40.4845 34.103 40.5H36.0271C37.9451 40.5 39.5 38.9607 39.5 37.0618V37.0618V28.3378C39.4898 27.5908 39.1355 26.8893 38.538 26.433L31.9577 21.1853C30.8049 20.2716 29.1662 20.2716 28.0134 21.1853L21.462 26.4426C20.8623 26.897 20.5074 27.5997 20.5 28.3474V37.0618C20.5 38.9607 22.0549 40.5 23.9729 40.5H25.897C26.5824 40.5 27.138 39.9499 27.138 39.2714V39.2714" stroke="black" stroke-width="1.5" stroke-linecap="round" stroke-linejoin="round"/>
</svg>
