<svg width="282" height="62" viewBox="0 0 282 62" fill="none" xmlns="http://www.w3.org/2000/svg">
<path d="M42.4924 0V62H0V24.701L42.4924 0Z" fill="#B9E0EA"/>
<path d="M58.0001 26.0598V59.3846H2.11523V37.2518V33.1756L5.71166 31.1257L9.48431 28.9579V33.0421L5.71166 35.1941V55.8581H54.4037V27.7484L45.3926 20.6798L43.3981 21.8186V17.7423L45.713 16.4229L58.0001 26.0598Z" fill="#0E677C"/>
<path d="M36.6458 25.6827L24.9674 32.3587V48.1139H36.6458V25.6827ZM36.6458 21.6065V11.781L16.1245 23.5228V51.6404H12.5281V25.5728V21.4965L16.1245 19.4466L40.2342 5.65485V19.5487V23.625V51.6325H21.387V30.3323L36.6458 21.6065Z" fill="#0E677C"/>
<path d="M79.5022 6.67458H83.3515L90.306 19.3808L97.2891 6.67458H101.11V27.5128H97.2891V13.5924L90.306 26.2986L83.3515 13.5924V27.5128H79.5022V6.67458Z" fill="#0C8FAE"/>
<path d="M104.186 17.0796C104.186 11.2206 109.266 6.30758 115.29 6.30758C121.286 6.30758 126.366 11.2206 126.366 17.0796C126.366 22.9386 121.286 27.8799 115.29 27.8799C109.266 27.8799 104.186 22.9386 104.186 17.0796ZM122.431 17.0796C122.431 13.0983 119.168 9.76649 115.29 9.76649C111.384 9.76649 108.092 13.0983 108.092 17.0796C108.092 21.0891 111.384 24.421 115.29 24.421C119.168 24.421 122.431 21.0891 122.431 17.0796Z" fill="#0C8FAE"/>
<path d="M129.4 6.67458H136.841C143.824 6.67458 148.746 10.9806 148.746 17.0796C148.746 23.1785 143.824 27.5128 136.841 27.5128H129.4V6.67458ZM137.241 24.0962C141.706 24.0962 144.84 21.1879 144.84 17.0937C144.84 12.9995 141.706 10.1194 137.241 10.1194H133.249V24.1104H137.241V24.0962Z" fill="#0C8FAE"/>
<path d="M155.601 10.1335V15.1737H166.519V18.6326H155.601V24.0681H167.65V27.527H151.752V6.68874H167.65V10.1477H155.601V10.1335Z" fill="#0C8FAE"/>
<path d="M183.491 27.527L178.511 20.5244H174.418V27.527H170.569V6.68874H179.77C184.292 6.68874 187.669 9.5406 187.669 13.6066C187.669 16.7549 185.609 19.1832 182.561 20.1291L187.855 27.527H183.491ZM174.418 17.0231H179.341C181.96 17.0231 183.763 15.7243 183.763 13.5925C183.763 11.4748 181.945 10.1618 179.341 10.1618H174.418V17.0231Z" fill="#0C8FAE"/>
<path d="M190.66 6.67458H194.509L205.671 21.3291V6.67458H209.477V27.5128H205.671L194.509 12.8583V27.5128H190.66V6.67458Z" fill="#0C8FAE"/>
<path d="M78 52.29L80.218 49.5934C82.1498 51.3158 84.3964 52.417 87.1725 52.417C89.7912 52.417 91.1363 51.1464 91.1363 49.6499C91.1363 47.9134 89.6338 47.3486 86.2424 46.558C81.8779 45.5557 78.83 44.3133 78.83 40.4026C78.83 36.7601 81.9638 34.0918 86.4284 34.0918C89.7769 34.0918 92.3097 35.2071 94.4275 37.0001L92.3383 39.7955C90.4924 38.2143 88.3745 37.339 86.2853 37.339C84.1675 37.339 82.7222 38.6096 82.7222 40.0637C82.7222 41.7579 84.2963 42.365 87.6447 43.1274C92.0378 44.1015 94.9999 45.4992 94.9999 49.2828C94.9999 53.01 92.1094 55.6501 87.0723 55.6501C83.4091 55.6642 80.3325 54.45 78 52.29Z" fill="#0E677C"/>
<path d="M97.7622 46.4451V34.4871H101.612V46.318C101.612 49.7769 103.887 52.2618 107.078 52.2618C110.312 52.2618 112.587 49.7769 112.587 46.318V34.4871H116.393V46.4451C116.393 51.8806 112.544 55.6924 107.078 55.6924C101.64 55.6924 97.7622 51.8665 97.7622 46.4451Z" fill="#0E677C"/>
<path d="M120.327 34.4871H124.177L135.338 49.1416V34.4871H139.145V55.3253H135.338L124.177 40.6708V55.3253H120.327V34.4871Z" fill="#0E677C"/>
<path d="M143.309 34.4871H147.159L158.32 49.1416V34.4871H162.127V55.3253H158.32L147.159 40.6708V55.3253H143.309V34.4871Z" fill="#0E677C"/>
<path d="M172.416 47.504L164.059 34.4871H168.581L174.391 43.918L180.301 34.4871H184.665L176.337 47.504V55.3253H172.43V47.504H172.416Z" fill="#0E677C"/>
<path d="M212.483 34.4871V55.3253H208.633V46.431H198.087V55.3253H194.238V34.4871H198.087V42.9862H208.633V34.4871H212.483Z" fill="#0E677C"/>
<path d="M215.287 44.8921C215.287 39.0332 220.367 34.1201 226.391 34.1201C232.387 34.1201 237.467 39.0332 237.467 44.8921C237.467 50.7511 232.387 55.6924 226.391 55.6924C220.352 55.6924 215.287 50.7511 215.287 44.8921ZM233.517 44.8921C233.517 40.9109 230.255 37.579 226.377 37.579C222.47 37.579 219.179 40.9109 219.179 44.8921C219.179 48.9017 222.47 52.2335 226.377 52.2335C230.255 52.2335 233.517 48.9017 233.517 44.8921Z" fill="#0E677C"/>
<path d="M240.5 34.4871H244.35L251.304 47.1934L258.287 34.4871H262.108V55.3253H258.287V41.405L251.304 54.1112L244.35 41.405V55.3253H240.5V34.4871Z" fill="#0E677C"/>
<path d="M269.821 37.946V42.9862H280.74V46.4451H269.821V51.8805H281.87V55.3394H265.972V34.5012H281.87V37.9602H269.821V37.946Z" fill="#0E677C"/>
</svg>
