<svg width="48" height="48" viewBox="0 0 48 48" fill="none" xmlns="http://www.w3.org/2000/svg">
<g id="Frame 341">
<path id="Vector" d="M23.7004 2.3999L5.40039 7.61976V18.7822C5.40837 24.5778 7.06042 30.2524 10.165 35.1481C13.2696 40.0438 17.6995 43.9601 22.9412 46.443L23.7004 46.7999L24.4595 46.443C29.7012 43.9601 34.1312 40.0438 37.2358 35.1481C40.3404 30.2524 41.9924 24.5778 42.0004 18.7822V7.61976L23.7004 2.3999ZM38.4279 18.7822C38.4141 23.7492 37.0328 28.6166 34.4352 32.8516C31.8375 37.0867 28.1238 40.5262 23.7004 42.7936C19.277 40.5262 15.5632 37.0867 12.9656 32.8516C10.368 28.6166 8.98669 23.7492 8.97286 18.7822V10.3145L23.7004 6.1118L38.4279 10.3145V18.7822ZM22.066 25.519L30.8453 16.7478L33.3639 19.273L22.066 30.5693L15.0282 23.5381L17.5557 21.0129L22.066 25.519Z" fill="#F0F2F4"/>
</g>
</svg>
