<svg width="24" height="24" viewBox="0 0 24 24" fill="none" xmlns="http://www.w3.org/2000/svg">
<g id="Sochial networks">
<path id="Vector" d="M21.9455 2.76466C21.5062 2.40034 20.9023 2.30659 20.3732 2.52052L2.45623 9.75392C1.66808 10.0783 1.29216 10.9802 1.61656 11.7683C1.78435 12.1759 2.11833 12.4923 2.53435 12.6377L6.39958 13.9815L8.49431 20.9072C8.49852 20.9213 8.51146 20.9299 8.51689 20.9435C8.53856 20.9987 8.57024 21.0496 8.61022 21.0934C8.62511 21.111 8.64135 21.1276 8.65868 21.1428C8.71086 21.1862 8.77147 21.2182 8.83666 21.2369C8.84661 21.2398 8.85326 21.2487 8.86339 21.251L8.86925 21.2507L8.87218 21.252C8.90557 21.2594 8.93962 21.263 8.97374 21.2627C9.01836 21.2611 9.06261 21.2534 9.10509 21.2398C9.11333 21.2376 9.12163 21.2382 9.12969 21.2355C9.20226 21.2099 9.26781 21.1679 9.32122 21.1126C9.32744 21.1063 9.3369 21.1052 9.34288 21.0986L12.3566 17.7734L16.753 21.1777C17.0202 21.3866 17.3495 21.5001 17.6886 21.5C18.422 21.4999 19.055 20.9862 19.2062 20.2686L22.4689 4.25099C22.582 3.69691 22.3807 3.12562 21.9455 2.76466ZM9.58806 15.2949L9.00012 21L7.40599 13.8539L17.3664 8.10478L9.7238 15.042C9.65471 15.1112 9.60753 15.1991 9.58806 15.2949ZM18.2267 20.0674C18.1884 20.2515 18.0571 20.4024 17.8801 20.4658C17.7071 20.5324 17.5118 20.5027 17.3664 20.3877L12.6027 16.6992C12.3965 16.5396 12.1021 16.5655 11.9269 16.7588L9.83129 19.071L10.5373 15.6436L17.7258 8.45411C17.9211 8.2591 17.9214 7.9427 17.7264 7.74738C17.5722 7.59278 17.3354 7.55628 17.1418 7.65724L6.77843 13.0539L2.8615 11.6924C2.648 11.6221 2.5028 11.424 2.50017 11.1992C2.48986 10.9729 2.62383 10.7648 2.83416 10.6807L20.7482 3.44825C20.9354 3.36884 21.1513 3.40211 21.3058 3.53419C21.4596 3.65833 21.5303 3.85859 21.4885 4.05177L18.2267 20.0674Z" stroke="#121014"/>
</g>
</svg>
